PathFileType	4	(X/Y/Z)	Kaydara																																																																																																																									
DataRate	CameraRate	NumFrames	NumMarkers	Units	OrigDataRate	OrigDataStartFrame	OrigNumFrames																																																																																																																					
30	30	4	41	mm	30	94	104																																																																																																																					
Frame#	Time	EMLA_LFHD			EMLA_RFHD			EMLA_LBHD			EMLA_RBHD			EMLA_LFTShould			EMLA_RFTShould			EMLA_LRRShould			EMLA_RRRShould			EMLA_T10			EMLA_STRN			EMLA_TRUN			EMLA_LSHO			EMLA_LUPA			EMLA_LELB			EMLA_LFRM			EMLA_LWRA			EMLA_LWRB			EMLA_LFIN			EMLA_RSHO			EMLA_RUPA			EMLA_RELB			EMLA_RFRM			EMLA_RWRA			EMLA_RWRB			EMLA_RFIN			EMLA_LFWT			EMLA_RFWT			EMLA_LBWT			EMLA_RBWT			EMLA_LTHI			EMLA_LKNE			EMLA_LSHN			EMLA_LANK			EMLA_LHEE			EMLA_LTOE			EMLA_RTHI			EMLA_RKNE			EMLA_RSHN			EMLA_RANK			EMLA_RHEE			EMLA_RTOE		
		X1	Y1	Z1	X2	Y2	Z2	X3	Y3	Z3	X4	Y4	Z4	X5	Y5	Z5	X6	Y6	Z6	X7	Y7	Z7	X8	Y8	Z8	X9	Y9	Z9	X10	Y10	Z10	X11	Y11	Z11	X12	Y12	Z12	X13	Y13	Z13	X14	Y14	Z14	X15	Y15	Z15	X16	Y16	Z16	X17	Y17	Z17	X18	Y18	Z18	X19	Y19	Z19	X20	Y20	Z20	X21	Y21	Z21	X22	Y22	Z22	X23	Y23	Z23	X24	Y24	Z24	X25	Y25	Z25	X26	Y26	Z26	X27	Y27	Z27	X28	Y28	Z28	X29	Y29	Z29	X30	Y30	Z30	X31	Y31	Z31	X32	Y32	Z32	X33	Y33	Z33	X34	Y34	Z34	X35	Y35	Z35	X36	Y36	Z36	X37	Y37	Z37	X38	Y38	Z38	X39	Y39	Z39	X40	Y40	Z40	X41	Y41	Z41
																																																																																																																												
79	3.1	298.77365	1577.98996	858.84125	129.49072	1560.00229	854.07768	313.53252	1601.68304	710.82367	120.13517	1584.51935	703.56903	307.6391	1363.32855	761.38603	163.21926	1356.25336	770.25139	291.51825	1423.87329	623.40881	139.0493	1417.03247	630.93842	222.85055	1258.49937	556.98456	236.97662	1286.51581	797.0507	230.92165	1181.44852	798.75931	425.53383	1391.32813	706.00754	509.74785	1237.17445	652.71072	554.46075	1102.68677	616.18805	563.15971	962.18201	597.18487	481.6	804.60526	650.78964	540.66071	796.41808	588.96614	533.09734	753.02231	643.96576	36.63197	1393.2869	714.62326	-33.46268	1206.14136	720.58273	-63.65279	1065.45189	703.33443	-71.68475	960.38712	705.04333	-6.80731	805.85403	821.54007	-58.1532	782.64847	753.72147	-68.97502	758.70186	813.68057	316.08454	952.70561	733.19771	77.95579	947.31712	707.78664	299.86639	974.14337	531.9331	126.72937	989.94102	530.75367	370.8218	686.0276	663.34709	383.72868	525.63122	808.66745	350.57716	335.28851	804.50302	340.3373	174.44525	695.74745	267.02906	112.88107	623.37189	313.93829	57.85169	805.77354	97.29658	705.1149	488.36037	86.86995	489.53312	530.71522	154.18651	269.70367	512.96944	129.8237	114.29564	419.60743	189.12071	72.2907	359.86691	163.28505	44.28062	557.74101
80	3.133	307.07304	1566.59286	926.07758	137.55042	1551.29013	924.90204	319.34296	1587.72308	777.46277	125.5688	1573.66577	774.19456	311.72855	1346.51123	832.00409	166.17468	1340.90378	842.73537	292.61688	1411.37497	693.88023	139.49886	1404.89395	703.37799	223.08914	1245.72296	627.2728	240.604	1272.3291	866.48346	233.78197	1167.52747	869.55238	428.51513	1376.87271	772.37221	512.38182	1225.36346	711.36986	558.78647	1093.58475	669.60915	570.97809	955.16617	644.44038	495.39227	792.04491	690.82245	553.69011	789.41933	627.1463	547.80495	742.20863	679.38667	39.54039	1381.40152	788.99384	-34.01404	1196.05324	802.66525	-68.27672	1055.85106	792.75024	-74.28576	949.76196	804.96559	3.77338	809.45976	931.4975	-54.05828	779.42017	870.33539	-57.72223	760.79674	933.18443	313.25916	939.20822	810.92018	77.6133	934.79752	773.56133	310.17878	962.43729	608.79349	137.61365	979.58344	598.98705	375.39276	678.71201	751.14929	386.28319	522.77103	898.11737	360.37476	335.04539	936.37894	355.26661	149.89524	881.95343	283.28674	67.25327	832.63306	333.36391	69.46898	1023.07991	108.59417	707.25174	540.10723	91.5702	488.14568	562.79205	157.36454	270.86308	530.17464	133.97204	121.87671	426.74316	194.35747	84.50022	364.96521	164.5137	43.81166	558.5503
81	3.167	314.98863	1552.62894	995.25345	145.37721	1539.2099	998.08487	324.57253	1571.00021	845.77438	130.0937	1558.98132	847.35016	317.04536	1327.70355	903.2267	168.8673	1319.2337	917.01843	294.40674	1397.03842	766.93581	140.98898	1391.0704	779.20952	223.95231	1232.27348	698.07358	244.66156	1253.00682	938.21609	237.78475	1148.3419	942.54227	432.2546	1359.11423	840.49049	514.18976	1207.59102	773.26294	561.3607	1079.23874	727.99911	577.44316	944.17297	696.87683	507.32044	776.61324	733.73421	567.10503	779.30275	671.0453	561.11843	728.77899	719.88464	42.92746	1365.08316	865.32875	-33.99446	1181.3871	883.01903	-71.87577	1042.20039	881.35323	-75.58497	937.20612	902.63466	12.86276	810.39299	1035.0811	-47.1284	773.42598	980.60081	-47.17072	761.22566	1045.35271	307.93652	923.45398	890.64636	77.79182	923.71712	836.1393	324.73526	945.59364	689.60831	153.4082	965.75066	666.12534	372.98897	659.42879	827.18285	388.25787	507.10117	977.75139	370.54424	334.82571	1056.38916	369.21535	142.66976	1052.81593	297.46683	48.95315	1030.7972	355.82458	101.37081	1213.02933	124.55091	706.53763	594.48612	94.36229	491.23219	596.06663	157.74714	274.01091	552.52991	137.13251	134.7886	435.25047	198.72404	102.30724	373.46142	164.48069	43.52409	559.47899
82	3.2	322.59567	1538.37006	1067.1299	153.06025	1525.39902	1072.83035	329.99283	1554.51828	917.25983	135.43706	1542.98279	922.05231	322.20222	1309.38568	976.9136	173.82999	1302.5769	992.02591	297.57355	1381.96533	840.99518	144.79921	1376.68869	853.99399	227.03592	1217.40829	771.18523	249.12739	1235.62233	1013.11218	241.62201	1130.9227	1017.24129	436.91811	1344.06525	911.42311	514.81068	1192.33841	837.32506	561.08326	1067.44202	790.82504	581.28357	934.86618	755.31021	517.15229	762.9068	782.05124	579.35387	771.43776	723.06198	572.54993	717.70271	768.32603	48.38744	1351.7717	941.92734	-30.83692	1169.1349	962.82509	-72.06553	1032.48718	965.30319	-74.27694	928.26286	992.16858	20.85666	812.10648	1129.99802	-41.15825	770.54764	1079.4175	-39.11827	762.77176	1145.00023	305.6008	910.36003	971.48903	79.36315	911.754	904.25003	340.23132	924.59579	771.483	170.21774	948.26157	738.70529	383.96111	638.77483	909.33044	390.42824	489.51721	1064.58336	375.59288	334.63211	1162.1167	377.44034	145.37364	1185.82382	307.46134	46.62959	1178.87589	366.26991	127.01339	1350.82535	138.70272	707.22336	665.42587	97.8392	490.20782	647.56607	158.40906	275.32864	584.31313	140.13077	151.09571	450.11402	202.62257	125.37085	388.27061	165.09947	42.9301	561.94744
